<?xml version="1.0" encoding="utf-8"?>
<!-- Generator: Adobe Illustrator 21.0.0, SVG Export Plug-In . SVG Version: 6.00 Build 0)  -->
<svg version="1.1" id="Camada_1" xmlns="http://www.w3.org/2000/svg" xmlns:xlink="http://www.w3.org/1999/xlink" x="0px" y="0px"
	 viewBox="0 0 189.2 210.2" style="enable-background:new 0 0 189.2 210.2;" xml:space="preserve">
<style type="text/css">
	.st0{fill:#E5E5E5;}
	.st1{fill:#FFFFFF;}
	.st2{opacity:0.5;}
	.st3{fill:none;stroke:#0F9800;stroke-width:17.0079;}
	.st4{fill:#195467;}
	.st5{fill:#0F9800;}
	.st6{fill:none;stroke:#CCCCCC;stroke-width:13.0301;stroke-miterlimit:10;}
	.st7{fill:none;stroke:#195467;stroke-width:17.0079;stroke-miterlimit:10;}
	.st8{fill:#F15A24;}
	.st9{fill:#F7931E;}
	.st10{fill:#FCEE21;}
	.st11{fill:#363636;}
	.st12{fill:#A0CFD4;}
	.st13{fill:#8ABFC9;}
	.st14{fill:#B0B0B0;}
	.st15{fill:#333333;}
	.st16{fill:none;stroke:#195467;stroke-width:46.105;stroke-miterlimit:10;}
	.st17{fill:none;stroke:#195467;stroke-width:49.2259;stroke-miterlimit:10;}
	.st18{fill:#999999;}
</style>
<g>
	<path class="st18" d="M136.6,121.9c7,8.6,13.9,17.2,20.9,25.7c9.9,12.1,19.7,24.2,29.6,36.4c3.1,3.9,2.9,6.2-0.9,9.3
		c-6.1,5-12.2,10-18.4,14.9c-3.6,2.9-6,2.6-8.9-1c-16.3-20.1-32.7-40.2-49-60.3c-0.5-0.7-1.1-1.3-1.7-2
		c-40.4,18.2-82.8-1.1-99.8-34.3C-8.4,78,0.7,37.7,30,15.4C59-6.7,100.6-4.7,127.1,19.5C155.7,45.7,160.6,89.7,136.6,121.9z
		 M129.2,75.8c0-29.2-23.9-53.1-53.1-53.1c-29.5,0-53.3,23.7-53.3,53.2c0,29.4,23.9,53.3,53.4,53.2
		C105.5,129,129.2,105.2,129.2,75.8z"/>
</g>
</svg>
