<?xml version="1.0" encoding="utf-8"?>
<!-- Generator: Adobe Illustrator 21.0.0, SVG Export Plug-In . SVG Version: 6.00 Build 0)  -->
<svg version="1.1" id="Camada_1" xmlns="http://www.w3.org/2000/svg" xmlns:xlink="http://www.w3.org/1999/xlink" x="0px" y="0px"
	 viewBox="0 0 163.3 227.7" style="enable-background:new 0 0 163.3 227.7;" xml:space="preserve">
<style type="text/css">
	.st0{fill:#E5E5E5;}
	.st1{fill:#FFFFFF;}
	.st2{opacity:0.5;}
	.st3{fill:none;stroke:#0F9800;stroke-width:17.0079;}
	.st4{fill:#195467;}
	.st5{fill:#0F9800;}
	.st6{fill:none;stroke:#CCCCCC;stroke-width:13.0301;stroke-miterlimit:10;}
	.st7{fill:none;stroke:#195467;stroke-width:17.0079;stroke-miterlimit:10;}
	.st8{fill:#F15A24;}
	.st9{fill:#F7931E;}
	.st10{fill:#FCEE21;}
	.st11{fill:#363636;}
	.st12{fill:#A0CFD4;}
	.st13{fill:#8ABFC9;}
	.st14{fill:#B0B0B0;}
	.st15{fill:#333333;}
	.st16{fill:none;stroke:#195467;stroke-width:46.105;stroke-miterlimit:10;}
	.st17{fill:none;stroke:#195467;stroke-width:49.2259;stroke-miterlimit:10;}
	.st18{fill:#999999;}
</style>
<g>
	<path class="st18" d="M87.7,0c3.4,0.7,6.8,1.2,10.1,2.1c25.9,6.5,45.5,29.2,48,55.8c3.2,33.5-18.4,62.9-51.4,69.9
		c-36.2,7.7-72.7-18.7-76.7-55.6C13.9,37,37.2,6.4,72,0.7c1.3-0.2,2.5-0.5,3.8-0.7C79.7,0,83.7,0,87.7,0z M81.6,17.1
		c-26.1,0.1-47.3,21.4-47.3,47.6c0,26.3,21.5,47.3,48.1,47.3c25.5-0.1,46.7-21.8,46.7-47.7C129.1,38.4,107.5,17,81.6,17.1z"/>
	<path class="st18" d="M81.5,227.6c-23.7,0-47.5-0.1-71.2,0.1c-6.2,0.1-10.5-3.6-10.2-10.3c1-31.1,10.4-59,31.3-82.6
		c5.3-6,9.5-8.2,17.8-1.9c17.2,12.9,36.2,13.6,55.6,5.8c5.1-2,9.8-5,14.5-7.8c4.3-2.6,8.1-2.6,11.8,0.9c9.7,9,16.7,19.9,21.7,32.1
		c7.2,17.4,10.4,35.7,10.5,54.5c0,4.5-2.1,7.7-5.8,8.8c-1.5,0.4-3.2,0.5-4.9,0.5C128.9,227.6,105.2,227.6,81.5,227.6z M41.6,148.9
		c-14.7,18-22.1,38.6-24.1,61.4c43.1,0,85.7,0,128.5,0c-2-22.7-7.4-43.8-22.2-61.5C96.4,163.5,69.1,165.9,41.6,148.9z"/>
</g>
</svg>
