<?xml version="1.0" encoding="utf-8"?>
<!-- Generator: Adobe Illustrator 21.0.0, SVG Export Plug-In . SVG Version: 6.00 Build 0)  -->
<svg version="1.1" id="Camada_1" xmlns="http://www.w3.org/2000/svg" xmlns:xlink="http://www.w3.org/1999/xlink" x="0px" y="0px"
	 viewBox="0 0 225.2 169" style="enable-background:new 0 0 225.2 169;" xml:space="preserve">
<style type="text/css">
	.st0{fill:#E5E5E5;}
	.st1{fill:#FFFFFF;}
	.st2{opacity:0.5;}
	.st3{fill:none;stroke:#0F9800;stroke-width:17.0079;}
	.st4{fill:#195467;}
	.st5{fill:#0F9800;}
	.st6{fill:none;stroke:#CCCCCC;stroke-width:13.0301;stroke-miterlimit:10;}
	.st7{fill:none;stroke:#195467;stroke-width:17.0079;stroke-miterlimit:10;}
	.st8{fill:#F15A24;}
	.st9{fill:#F7931E;}
	.st10{fill:#FCEE21;}
	.st11{fill:#363636;}
	.st12{fill:#A0CFD4;}
	.st13{fill:#8ABFC9;}
	.st14{fill:#B0B0B0;}
	.st15{fill:#333333;}
	.st16{fill:none;stroke:#195467;stroke-width:46.105;stroke-miterlimit:10;}
	.st17{fill:none;stroke:#195467;stroke-width:49.2259;stroke-miterlimit:10;}
	.st18{fill:#999999;}
</style>
<g id="GLzsyx_4_">
	<g>
		<path class="st1" d="M225.2,19.6c0,43.2,0,86.4,0,129.6c-0.1,0.2-0.2,0.4-0.2,0.6c-0.8,5.7-3.5,10.4-7.9,14.1
			c-4.4,3.6-9.5,5-15.1,5c-59.6,0-119.1,0-178.7,0c-0.3,0-0.5,0-0.8,0C9.5,169.1,0,158.7,0,147c0-41.7,0-83.3,0-125
			c0-2,0.3-4,0.8-5.9C3.5,6.4,12.1,0,22.3,0C82.5,0,142.8,0,203,0c0.2,0,0.3,0,0.5,0c10.2,0.2,18.8,7,21.2,17
			C224.9,17.9,225,18.8,225.2,19.6z M14.4,21.8c-0.1,0-0.2,0.1-0.3,0.1c0,0.4,0,0.9,0,1.3c0,40.9,0,81.7,0,122.6c0,0.4,0,0.8,0,1.3
			c0.2,3.2,1.7,5.7,4.7,6.9c1.3,0.6,2.9,0.7,4.4,0.7c39.2,0,78.4,0,117.5,0c20.6,0,41.3-0.1,61.9,0c5.1,0,8.7-3.7,8.6-8.5
			c0-41,0-82.1,0-123.1c0-0.3,0-0.6-0.1-1.2c-32.9,32.9-65.5,65.5-98.3,98.3C80,87.5,47.2,54.7,14.4,21.8z M198.9,14.2
			c-57.4,0-114.8,0-171.9,0c28.6,28.6,57.3,57.3,85.9,86C141.5,71.6,170.2,42.9,198.9,14.2z"/>
	</g>
</g>
</svg>
