<?xml version="1.0" encoding="utf-8"?>
<!-- Generator: Adobe Illustrator 21.0.0, SVG Export Plug-In . SVG Version: 6.00 Build 0)  -->
<svg version="1.1" id="Camada_1" xmlns="http://www.w3.org/2000/svg" xmlns:xlink="http://www.w3.org/1999/xlink" x="0px" y="0px"
	 viewBox="0 0 192.7 187.2" style="enable-background:new 0 0 192.7 187.2;" xml:space="preserve">
<style type="text/css">
	.st0{fill:#E5E5E5;}
	.st1{fill:#FFFFFF;}
	.st2{opacity:0.5;}
	.st3{fill:none;stroke:#0F9800;stroke-width:17.0079;}
	.st4{fill:#195467;}
	.st5{fill:#0F9800;}
	.st6{fill:none;stroke:#CCCCCC;stroke-width:13.0301;stroke-miterlimit:10;}
	.st7{fill:none;stroke:#195467;stroke-width:17.0079;stroke-miterlimit:10;}
	.st8{fill:#F15A24;}
	.st9{fill:#F7931E;}
	.st10{fill:#FCEE21;}
	.st11{fill:#363636;}
	.st12{fill:#A0CFD4;}
	.st13{fill:#8ABFC9;}
	.st14{fill:#B0B0B0;}
	.st15{fill:#333333;}
	.st16{fill:none;stroke:#195467;stroke-width:46.105;stroke-miterlimit:10;}
	.st17{fill:none;stroke:#195467;stroke-width:49.2259;stroke-miterlimit:10;}
	.st18{fill:#999999;}
</style>
<g id="BnXqic_1_">
	<g>
		<path class="st18" d="M0,91.9c0.9-3.6,1.8-7.1,2.7-10.7C4.8,72.1,6.9,63,8.9,53.9c0.3-1.3,0.9-1.7,2.1-1.9
			c7.1-0.7,14.2-1.5,21.3-2.3c0.7-0.1,1.5-0.5,2-1.1c1.3-1.4,2.2-3.1,3.6-4.4c1.8-1.7,1.9-3.6,1.6-5.8c-0.8-6.5-1.5-13-2.3-19.4
			c-0.2-1.3,0.3-1.7,1.3-2.2C50,11.3,61.3,5.9,72.7,0.4c1.1-0.5,1.8-0.5,2.7,0.4c4.9,5,9.9,10,14.9,14.9c0.7,0.7,1.8,1.1,2.7,1.2
			c2.8,0.1,5.9,0.7,8.4-0.3c2.4-1,4-3.7,6-5.6c3.4-3.4,6.8-6.7,10.1-10.2c0.9-0.9,1.5-1.1,2.7-0.5c11.3,5.5,22.7,11,34.1,16.4
			c1.1,0.5,1.5,1.1,1.4,2.4c-0.9,7.1-1.7,14.2-2.4,21.3c-0.1,0.8,0.2,1.7,0.7,2.4c1.4,2,3,3.9,4.6,5.7c0.4,0.5,1.2,1,1.8,1.1
			c7,0.8,14.1,1.6,21.2,2.3c1.5,0.2,2.3,0.6,2.6,2.2c2.7,12.2,5.5,24.3,8.3,36.5c0.3,1.3-0.1,2-1.2,2.7c-6,3.7-12,7.4-17.9,11.2
			c-0.7,0.5-1.3,1.4-1.6,2.3c-0.6,2.2-1.2,4.4-1.5,6.6c-0.1,1,0,2.3,0.5,3.1c3.7,6,7.4,11.9,11.3,17.8c0.7,1,0.6,1.7-0.2,2.6
			c-7.9,9.8-15.8,19.7-23.6,29.6c-0.8,1-1.5,1.2-2.7,0.8c-6.5-2.4-13.1-4.6-19.7-7c-1.3-0.5-2.4-0.5-3.5,0.2c-1,0.6-2.1,1.2-3.2,1.5
			c-3.2,0.9-4.7,3.2-5.6,6.3c-2,6.3-4.3,12.5-6.4,18.7c-13.8,0-27.4,0-41.2,0c-2.4-6.9-4.9-13.8-7.2-20.8c-0.5-1.6-1.5-2.4-2.9-3.3
			c-4.7-3.1-9.1-3.2-14.2-0.8c-4.5,2.1-9.4,3.4-14.1,5.1c-1.2,0.4-1.9,0.3-2.7-0.7c-7.9-9.9-15.8-19.9-23.8-29.7
			c-0.7-0.9-0.7-1.5-0.1-2.5c3.8-6,7.6-12,11.4-18c0.5-0.8,0.4-1.9,0.5-2.9c0-0.5-0.3-1-0.3-1.5c-0.2-5.1-2.9-8.1-7.4-10.5
			C9.9,98.9,5,95.4,0,92.3C0,92.2,0,92.1,0,91.9z M140.2,26.6c-0.3-0.2-0.7-0.8-1.3-1.1c-5.2-2.5-10.4-5-15.6-7.5
			c-1.2-0.6-1.9-0.4-2.7,0.5c-3.9,4-7.8,8-11.9,11.8c-0.7,0.6-1.8,1.1-2.7,1.1c-6.3,0.1-12.7,0.1-19,0c-0.9,0-1.9-0.5-2.6-1.1
			c-4.1-3.9-8.1-7.9-12-12c-0.8-0.8-1.5-1-2.6-0.5c-5.2,2.6-10.4,5-15.6,7.5c-1,0.5-1.4,1-1.2,2.1c0.7,5.5,1.4,11.1,1.9,16.6
			c0.1,0.9,0,2.1-0.6,2.8c-4,5.2-8.1,10.3-12.2,15.3c-0.5,0.6-1.3,1.1-2,1.2c-5.5,0.7-11.1,1.4-16.7,1.8c-1.8,0.1-2.4,0.8-2.8,2.5
			c-1.1,5.2-2.2,10.3-3.5,15.4c-0.5,1.8,0,2.7,1.5,3.6c4.6,2.8,9.2,5.7,13.7,8.6c0.7,0.5,1.4,1.4,1.6,2.3c1.5,6.2,2.9,12.3,4.2,18.5
			c0.2,0.9,0,2.1-0.5,2.9c-2.9,4.7-5.8,9.4-8.8,14c-0.8,1.2-0.8,2,0.1,3.1c3.6,4.4,7.1,8.8,10.6,13.2c0.7,0.9,1.4,1.2,2.5,0.7
			c5.4-2,10.7-3.9,16.1-5.7c0.8-0.3,1.9-0.2,2.6,0.2c5.8,2.7,11.6,5.5,17.3,8.3c0.8,0.4,1.6,1.2,1.9,2.1c1.9,5.3,3.8,10.6,5.6,16
			c0.4,1.2,1,1.6,2.3,1.6c5.7-0.1,11.3-0.1,17,0c1.4,0,2-0.5,2.4-1.8c1.8-5.2,3.6-10.4,5.5-15.6c0.3-0.9,1.2-1.9,2.1-2.4
			c5.6-2.8,11.3-5.5,16.9-8.2c1.1-0.5,2-0.5,3.2-0.1c5.3,1.9,10.6,3.7,16,5.6c1,0.3,1.6,0.3,2.2-0.6c3.6-4.6,7.2-9.2,10.9-13.7
			c0.8-1,0.7-1.7,0-2.6c-3-4.6-5.9-9.4-8.9-14c-0.7-1.1-0.9-2.1-0.6-3.3c1.4-6.1,2.8-12.2,4.3-18.3c0.2-0.9,1-1.9,1.8-2.4
			c4.7-3,9.4-6,14.2-8.9c0.9-0.5,1.5-1,1.2-2.2c-1.4-5.7-2.6-11.5-4.1-17.2c-0.1-0.6-0.9-1.4-1.5-1.5c-5.7-0.7-11.4-1.3-17-2
			c-1-0.1-2.2-0.7-2.8-1.5c-3.9-4.7-7.6-9.5-11.5-14.2c-1.1-1.3-1.3-2.5-1.1-4.1C138.9,38.2,139.5,32.7,140.2,26.6z"/>
		<path class="st18" d="M59.6,94.5c0-20.4,16.6-36.9,37-36.8c20.4,0,36.9,16.6,36.8,37c0,20.3-16.6,36.8-37.1,36.7
			C76.1,131.4,59.6,114.9,59.6,94.5z M70.5,94.5c0,14.3,11.7,26,26,26c14.2,0,26-11.7,26-25.8c0.1-14.3-11.6-26.1-25.9-26.1
			C82.4,68.5,70.5,80.3,70.5,94.5z"/>
	</g>
</g>
</svg>
