<?xml version="1.0" encoding="utf-8"?>
<!-- Generator: Adobe Illustrator 21.0.0, SVG Export Plug-In . SVG Version: 6.00 Build 0)  -->
<svg version="1.1" id="Camada_1" xmlns="http://www.w3.org/2000/svg" xmlns:xlink="http://www.w3.org/1999/xlink" x="0px" y="0px"
	 viewBox="0 0 227.8 227.7" style="enable-background:new 0 0 227.8 227.7;" xml:space="preserve">
<style type="text/css">
	.st0{fill:#E5E5E5;}
	.st1{fill:#FFFFFF;}
	.st2{opacity:0.5;}
	.st3{fill:none;stroke:#0F9800;stroke-width:17.0079;}
	.st4{fill:#195467;}
	.st5{fill:#0F9800;}
	.st6{fill:none;stroke:#CCCCCC;stroke-width:13.0301;stroke-miterlimit:10;}
	.st7{fill:none;stroke:#195467;stroke-width:17.0079;stroke-miterlimit:10;}
	.st8{fill:#F15A24;}
	.st9{fill:#F7931E;}
	.st10{fill:#FCEE21;}
	.st11{fill:#363636;}
	.st12{fill:#A0CFD4;}
	.st13{fill:#8ABFC9;}
	.st14{fill:#B0B0B0;}
	.st15{fill:#333333;}
	.st16{fill:none;stroke:#195467;stroke-width:46.105;stroke-miterlimit:10;}
	.st17{fill:none;stroke:#195467;stroke-width:49.2259;stroke-miterlimit:10;}
	.st18{fill:#999999;}
</style>
<g id="qNt2Hz_4_">
	<g>
		<path class="st18" d="M162,0c2.4,0,4.7,0,7.1,0c4,2.3,7.9,4.7,12.3,7.3c-0.2,0.1,0.4-0.3,0.9-0.6c5.1-3.3,10.4-4,15.7-1
			c5.5,3.1,8.3,8.1,7.4,14.3c-0.8,5.6-1.6,11.7-4.4,16.3c-4.2,6.8-10.1,12.6-15.1,18.6c0.1,0,1.3,0.5,2.6,1
			c22.2,9.9,36.3,26.5,38.3,51c1.6,18.9,0.9,38.1,0.9,57.1c0,20.1-14.4,34.3-34.5,34.4c-13.5,0-27-0.1-40.5,0.1
			c-1.7,0-4.1,1.4-5,2.8c-10.6,17.5-26.1,26.2-46.4,26.4c-16,0.1-32,0.1-48.1,0c-30.9-0.1-53.1-22.4-53.2-53.3c0-15.5-0.1-31,0-46.5
			c0.2-15.9,4.8-30.5,14.1-43.5c10.7-15.1,25.2-24.9,42.8-30.1c0-0.4,0-0.6-0.1-0.7c-0.8-0.6-1.6-1.2-2.4-1.8
			c-10.7-7.8-16.7-18.2-17.5-31.5C36.3,9.9,44.2,2.3,54,4.1c2.8,0.5,5.5,2.2,7.2,2.9c4.7-2.6,8.7-4.8,12.8-7c2.4,0,4.7,0,7.1,0
			c4,2.4,7.9,4.7,12.2,7.3c4.9-3.8,10.9-5,17.2-1.3c6.3,3.7,8.4,9.9,6.8,16.6c-1.6,6.6-4.1,13.1-7.3,19.1c-2.8,5-7.2,9.2-10.1,12.9
			c6.8,3.3,15.6,7.6,24.2,11.8c7.1-4.1,14.4-8.3,21.8-12.6c-1-0.6-2.3-1.4-3.5-2.3c-11-8.1-17-18.9-17.1-32.7
			c-0.1-9.5,7.7-16.3,17-14.6c2.9,0.5,5.5,2.2,7.2,2.9C153.9,4.5,157.9,2.3,162,0z M58.2,65.3C32.3,71,10.5,99,10.2,126.7
			c-0.2,16.2-0.2,32.3,0,48.5c0.2,22.6,18.5,41.3,41.2,41.8c17.1,0.4,34.2,0.3,51.4,0c22.5-0.4,40.8-18.8,41.2-41.2
			c0.2-16.5,0.1-32.9-0.1-49.4c-0.1-12.9-4.3-24.7-11.7-35.3c-8.8-12.7-20.6-21.4-36.3-26.3c12.5,17.5,16.1,36.6,16.2,56.7
			c-2.7,0-4.6,0-6.5,0c-0.5-5.9-0.8-11.4-1.6-16.8c-1.7-11.7-4.8-23.1-11.8-32.9c-9.1-12.8-20.5-12.9-29.9-0.4
			c-6.5,8.7-9.7,18.9-11.5,29.4c-1.2,6.9-1.8,13.9-2.6,20.8c-2.1,0-3.9,0-6.3,0C42.5,101.4,45.7,82.3,58.2,65.3z M154.6,187.9
			c13.5,0,27.5,0.5,41.4-0.1c12.8-0.6,22.5-11.5,22.6-24.4c0.1-16.4,0.2-32.8,0-49.1c-0.1-11.4-3.5-21.8-10.3-30.9
			c-6.3-8.5-14.3-14.7-25-18.4c9.4,18.1,10.4,37,10.5,56c-2.7,0-4.7,0-6.5,0c-0.5-7.4-0.2-14.6-1.6-21.5c-1.8-9.5-4.4-18.9-7.5-28.1
			c-1.8-5.3-6-9.3-12.2-9.4c-6.5-0.1-10.3,4.3-12.6,9.6c-2.5,5.8-4.3,12-5.8,18.2c-0.6,2.4,0.3,5.2,1,7.7c1.7,6.1,4.8,12.1,5.4,18.3
			C156.6,139.6,155.7,163.5,154.6,187.9z M61,19.1c-2.5-5.5-5.1-7.3-9.2-6.2c-3.8,1-5.3,4.4-4.5,10.2c0.3,2,0.6,3.9,1.2,5.8
			c4.3,13.2,18,22,31.4,20.5c14.5-1.7,26.1-13.4,27.3-27.5c0.4-4.9-1.4-8.4-5.1-9.1c-4.4-0.9-7,1.3-8.4,5.3
			c-0.1,0.4-0.5,0.7-0.7,0.9c-2,0-3.8,0-5.6,0c-1.7-6.3-4.8-9.5-9.6-9.9c-5-0.4-8.5,2.5-11.6,9.9C64.6,19.1,62.8,19.1,61,19.1z
			 M149.3,19.4c-2-5.2-4.6-7.1-8.6-6.2c-3.5,0.8-5.2,3.9-4.7,9c1.6,18.5,19.9,31,37.6,25.7c12.3-3.7,21.7-15.9,20.9-27.8
			c-0.2-2.3-2.2-5.3-4.3-6.5c-2.5-1.5-6.1-0.7-7.3,2.3c-1.6,3.9-4.2,4-7.8,3.3c-0.5-5.3-3.5-8.9-8.9-9.4c-6.7-0.7-9.8,3.9-11.4,9.6
			C152.9,19.4,151.3,19.4,149.3,19.4z M139,80.8c2.1-5.7,4.2-11.3,6.7-18c-5.5,3.2-10.2,6-15,8.8C133.9,75.1,136.4,77.9,139,80.8z"
			/>
		<path class="st18" d="M107,147.7c1.9-3.5,3.5-6.4,5.4-9.9c2.4,1.1,4.7,2.2,7.5,3.6c-2.9,6-5.7,11.8-8.8,17.5
			c-0.6,1.1-2.4,2.2-3.7,2.3c-7,0.2-14,0.1-21.3,0.1c0-2.9,0-5.2,0-8.1c4.1,0,8.2,0,14.2,0c-4.9-7.6-8.5-14.5-13.3-20.3
			c-3.8-4.7-9.6-2.8-15.9,4.1c-2.1-1.3-4.2-2.7-6.2-4c6.4-13.5,22.7-15,31.1-3.1C99.8,135.5,103.1,141.4,107,147.7z"/>
		<path class="st18" d="M54.3,148.5c-4.7-0.2-8.3-0.4-12.2-0.6c0-2.6,0-4.9,0-8.1c7.5,0,15.3-0.1,23,0.1c1,0,2.4,2,2.8,3.2
			c1.5,5.4,2.7,10.8,4.2,17c-2.8,0.7-5.3,1.3-8.1,1.9c-0.9-2.9-1.6-5.3-2.5-8.6c-4.5,5.6-8.7,10.4-12.3,15.6c-3.3,4.7-0.9,9,4.9,9.6
			c1.4,0.1,2.8,0.1,4.7,0.2c0,2.6,0,5,0,7.5c-7.2,1.9-13.6,0-17-5c-3.8-5.7-3.6-12.4,1-18.4C46.2,158.5,49.9,154,54.3,148.5z"/>
		<path class="st18" d="M87.5,174.1c-0.6,0.7-1.9,2.2-4.1,4.5c7.8,0,14.9,0.3,21.9-0.3c1.4-0.1,3.4-3.6,3.7-5.7
			c0.7-5.6,0.4-5.6,6.2-8.3c6.5,9.1,0.9,23.8-12.5,23.2c-6.8-0.3-13.6-0.1-21.7-0.1c2.9,4.1,5.2,7.2,7.7,10.7
			c-2.2,1.7-4.2,3.2-6.6,5.1c-5.2-6.9-10.2-13.6-15.3-20.3c5.3-5.1,10.3-10,16.3-15.8C84.4,169.2,85.9,171.6,87.5,174.1z"/>
	</g>
</g>
</svg>
