<?xml version="1.0" encoding="utf-8"?>
<!-- Generator: Adobe Illustrator 21.0.0, SVG Export Plug-In . SVG Version: 6.00 Build 0)  -->
<svg version="1.1" id="Camada_1" xmlns="http://www.w3.org/2000/svg" xmlns:xlink="http://www.w3.org/1999/xlink" x="0px" y="0px"
	 viewBox="0 0 145.5 170.3" style="enable-background:new 0 0 145.5 170.3;" xml:space="preserve">
<style type="text/css">
	.st0{fill:#E5E5E5;}
	.st1{fill:#FFFFFF;}
	.st2{opacity:0.5;}
	.st3{fill:none;stroke:#0F9800;stroke-width:17.0079;}
	.st4{fill:#195467;}
	.st5{fill:#0F9800;}
	.st6{fill:none;stroke:#CCCCCC;stroke-width:13.0301;stroke-miterlimit:10;}
	.st7{fill:none;stroke:#195467;stroke-width:17.0079;stroke-miterlimit:10;}
	.st8{fill:#F15A24;}
	.st9{fill:#F7931E;}
	.st10{fill:#FCEE21;}
	.st11{fill:#363636;}
	.st12{fill:#A0CFD4;}
	.st13{fill:#8ABFC9;}
	.st14{fill:#B0B0B0;}
	.st15{fill:#333333;}
	.st16{fill:none;stroke:#195467;stroke-width:46.105;stroke-miterlimit:10;}
	.st17{fill:none;stroke:#195467;stroke-width:49.2259;stroke-miterlimit:10;}
	.st18{fill:#999999;}
</style>
<g>
	<g>
		<path class="st1" d="M0,75.9L145.5,0v32.3c0,2.5-0.6,4.7-1.8,6.7c-1.2,2-3.2,3.8-6.1,5.2L70.9,78.5c-2.8,1.5-5.8,2.7-8.9,3.8
			c-3.1,1-6.5,2-10,2.8c3.6,0.9,6.9,1.8,10,2.8c3.1,1,6.1,2.3,8.9,3.8l66.7,34.4c2.8,1.5,4.8,3.2,6.1,5.2c1.2,2,1.8,4.3,1.8,6.7
			v32.3L0,94.3V75.9z"/>
	</g>
</g>
</svg>
