<?xml version="1.0" encoding="utf-8"?>
<!-- Generator: Adobe Illustrator 21.0.0, SVG Export Plug-In . SVG Version: 6.00 Build 0)  -->
<svg version="1.1" id="Camada_1" xmlns="http://www.w3.org/2000/svg" xmlns:xlink="http://www.w3.org/1999/xlink" x="0px" y="0px"
	 viewBox="0 0 921.8 366.3" style="enable-background:new 0 0 921.8 366.3;" xml:space="preserve">
<style type="text/css">
	.st0{fill:#E5E5E5;}
	.st1{fill:#FFFFFF;}
	.st2{opacity:0.5;}
	.st3{fill:none;stroke:#0F9800;stroke-width:17.0079;}
	.st4{fill:#195467;}
	.st5{fill:#0F9800;}
	.st6{fill:none;stroke:#CCCCCC;stroke-width:13.0301;stroke-miterlimit:10;}
	.st7{fill:none;stroke:#195467;stroke-width:17.0079;stroke-miterlimit:10;}
	.st8{fill:#F15A24;}
	.st9{fill:#F7931E;}
	.st10{fill:#FCEE21;}
	.st11{fill:#363636;}
	.st12{fill:#A0CFD4;}
	.st13{fill:#8ABFC9;}
	.st14{fill:#B0B0B0;}
	.st15{fill:#333333;}
	.st16{fill:none;stroke:#195467;stroke-width:46.105;stroke-miterlimit:10;}
	.st17{fill:none;stroke:#195467;stroke-width:49.2259;stroke-miterlimit:10;}
</style>
<g>
	<g>
		<g>
			<path class="st1" d="M19,240.4c0-13.3,0.3-25.6,0.9-37c0.6-11.4,0.9-23.4,0.9-36.1L0,164.7v-12c3.4-1.3,7.5-2.5,12.5-3.8
				c4.9-1.3,10.1-2.4,15.3-3.3c5.3-0.9,10.4-1.8,15.3-2.5c4.9-0.7,9.1-1.3,12.5-1.7h10.7c0,15.8-0.3,31.3-0.9,46.6
				c-0.6,15.3-0.9,30.3-0.9,45c0,17.3,1.7,29.7,5.2,37.3c3.5,7.6,10,11.4,19.4,11.4c6.5,0,12.6-2.5,18.2-7.4
				c5.6-5,10.2-12.9,13.7-23.9v-83l-20.5-2.5v-12c3.2-1.3,7.1-2.5,11.8-3.8c4.7-1.3,9.7-2.4,14.8-3.3c5.2-0.9,10.3-1.8,15.3-2.5
				c5.1-0.7,9.5-1.3,13.3-1.7h10.7v139.3l20.9,2.5v11.1c-3,1.3-6.6,2.5-11.1,3.8c-4.4,1.3-9.1,2.5-13.9,3.6
				c-4.8,1.2-9.6,2.1-14.4,2.8c-4.7,0.7-9,1.3-12.8,1.7h-10.7l-2.2-37.6H121c-1.1,4.4-3,8.9-5.7,13.4c-2.7,4.5-6.3,8.6-10.6,12.3
				c-4.3,3.7-9.4,6.7-15.3,9c-5.9,2.3-12.4,3.5-19.6,3.5c-8,0-15.1-1-21.3-3c-6.2-2-11.5-5.5-16-10.6s-7.8-11.9-10.1-20.4
				C20.1,264.3,19,253.5,19,240.4z"/>
			<path class="st1" d="M286.9,366.3h-87.2v-12c7.2-3.4,14.1-5.9,20.9-7.6V167.2l-20.9-2.5v-12c3.4-1.5,7.5-2.8,12.5-4.1
				c4.9-1.3,10.1-2.4,15.3-3.3c5.3-0.9,10.4-1.7,15.3-2.4c4.9-0.6,9.1-1.2,12.5-1.6H266v35.4h0.3c3.6-10.1,9.2-18.5,16.9-25.3
				c7.7-6.7,18.4-10.1,32.1-10.1c9.3,0,17.6,1.5,25.1,4.6c7.5,3.1,13.8,7.8,19,14.2c5.2,6.4,9.2,14.6,12,24.6
				c2.8,10,4.3,22,4.3,35.9c0,13.3-1.8,25.3-5.5,36c-3.7,10.7-9,19.8-15.8,27.2c-6.8,7.4-15.2,13.1-25,17.1c-9.8,4-20.9,6-33.3,6
				c-7.2,0-12.8-0.5-16.9-1.4c-4.1-0.9-8.5-2.6-13.1-4.9v46.1c3.4,0.4,6.7,1.2,10.1,2.4c3.4,1.2,7,2.9,10.7,5.2V366.3z M297,166.6
				c-7.2,0-13.5,2.5-19.1,7.6c-5.6,5.1-9.5,12.8-11.8,23.4v84c3.4,2.5,7,4.4,10.7,5.5c3.8,1.2,8.7,1.7,14.8,1.7
				c12,0,20.9-5.8,26.5-17.4c5.7-11.6,8.5-28.5,8.5-50.9c0-17.3-2.2-30.6-6.5-40C315.9,171.3,308.2,166.6,297,166.6z"/>
		</g>
		<g>
			<path class="st1" d="M532.7,219.6c0.8-1.4,2-2.4,3.7-3.1c1.7-0.7,3.5-0.8,5.4-0.2c4.9,1.1,6.6,3.3,5.1,6.6
				c-2.3,5.3-5.3,10.9-9.1,17c-6.8,12.2-14,23.8-21.6,34.9c-6.4,9.7-13.7,19.5-21.9,29.5c-8.2,10-16.4,18.3-24.7,24.9
				c-3,2.5-6.1,4.7-9.1,6.6c-3,1.7-6.2,3.2-9.4,4.8c-3.2,1.5-6.9,2.6-11.1,3.1c-4.2,0-7.5-0.4-10-1c-2.5-0.7-4.7-1.6-6.6-2.7
				c-1.9-1.1-3.7-2.4-5.2-3.7c-4.2-3.9-7.8-9-10.7-15.4c-2.9-6.4-5.3-12.7-7.2-19.1c-1.9-7.2-3.7-15.1-5.2-23.7
				c-1.1-11.3-1.3-23.5-0.6-36.3c0.8-12.9,2-25.5,3.7-38c1.7-12.5,3.9-24.3,6.4-35.7c2.5-11.3,4.9-21.2,7.2-29.5
				c3.5-14.4,7.8-28.6,13-42.5c5.2-14,10.8-26.9,16.9-38.8c6.1-11.9,12.4-22.3,19-31.1c6.6-8.9,13.2-15.4,19.6-19.5
				c2.6-1.7,5.5-3,8.5-4.2c2.3-1.1,4.8-1.9,7.7-2.3c2.8-0.4,5.6-0.3,8.2,0.2c2.6,0.8,4.9,2.4,6.8,4.6c1.9,2.2,2.6,5.9,2.3,11
				c-0.4,5.1-2,11.9-4.8,20.3c-2.8,8.4-7.9,19.3-15.1,32.6c-9.5,16.9-19,35.9-28.7,57.1s-17.5,44.8-23.6,70.8
				c-6.1,26.8-10,50.5-11.9,71c-0.8,8.9-1.3,17.4-1.4,25.5c-0.2,8.2,0.3,15.2,1.4,21.2c1.1,5.9,3,10.4,5.7,13.5
				c2.6,3,6.4,3.9,11.4,2.5c3-1.4,6.6-3.8,10.8-7.3c4.2-3.5,8.1-7.1,11.9-11c4.2-4.4,8.3-9.3,12.5-14.5c5.7-7.5,11.6-15.5,17.6-24.1
				c5.3-7.2,10.8-15.5,16.5-24.9C521.9,239.3,527.4,229.6,532.7,219.6z"/>
			<path class="st1" d="M592.4,293.9c-12.5,2.2-22.9,2.8-31.3,1.9c-8.3-1-15.2-2.6-20.5-4.8c-6.1-2.5-10.8-5.8-14.2-10
				c-4.5-5.5-7.1-11.7-7.7-18.5c-0.6-6.8-0.3-13.3,0.9-19.7c1.5-7.2,3.8-14.5,6.8-22c3-6.1,6.7-12.2,11.1-18.3
				c4.4-6.1,9.2-11.9,14.5-17.4c3-3.6,6.4-7.1,10.2-10.4c3-3,6.7-6.1,11.1-9.1c4.4-3,9-5.7,13.9-7.9c4.2-1.9,8.3-3.5,12.5-4.6
				c3.8-0.8,7.9-1.3,12.2-1.5c4.4-0.1,9,0.8,13.9,2.7c2.6,1.4,4.9,2.8,6.8,4.2c1.9,1.4,3.4,3,4.5,5c1.1,1.9,1.5,4.3,1.1,7.1
				c0,2.5-0.4,5.3-1.1,8.3c-0.8,2.5-2,5.3-3.7,8.5c-1.7,3.2-4.1,6.6-7.1,10.2c-4.2,4.4-9.1,8.7-14.8,12.9
				c-4.9,3.6-10.9,7.2-17.9,10.8c-7,3.6-15.1,6.4-24.2,8.3c-8.7,25.2-8.5,41.5,0.6,49c9.1,7.5,26.3,5.8,51.7-5
				c7.2-3,13.8-6.8,19.9-11.2c16.7-11.3,29-25,36.9-41.1c0.8-1.4,2-2.4,3.7-3.1c1.7-0.7,3.5-0.8,5.4-0.2c1.9,0.6,3.3,1.5,4.3,2.7
				c0.9,1.2,1,2.6,0.3,3.9c-8.7,18.3-22.2,33.5-40.4,45.7c-8.7,6.1-18.2,11.1-28.4,14.9C613.4,289.1,603,292,592.4,293.9z
				 M573.6,218c6.8-2.2,12.8-4.8,17.9-7.9c5.1-3,9.4-6.1,12.8-9.1c4.2-3.3,7.6-6.8,10.2-10.4c3-3.9,5.1-7.1,6.3-9.8
				c1.1-2.6,1.9-5,2.3-7.3c0.4-2.2,0.4-4.3,0-6.2c-1.1-2.2-2.8-3.6-5.1-4.2c-1.1-0.3-2.3-0.3-3.4,0c-0.8,0-2,0.3-3.7,0.8
				c-1.7,0.6-3.9,1.9-6.5,3.9c-2.7,2.1-5.7,5.3-9.1,9.5c-3.4,4.3-7,10.2-10.8,17.6c-1.1,2.8-2.5,5.5-4,8.3c-1.1,2.2-2.4,4.7-3.7,7.5
				C575.4,213.7,574.4,216,573.6,218z"/>
			<path class="st1" d="M680.4,254.5c0.8-6.1,1.1-11.7,1.1-16.8c0-5.1-0.2-9.6-0.6-13.5c-0.4-4.4-0.8-8.3-1.1-11.6
				c-0.8-3.9-1.2-7.4-1.4-10.6c-0.2-3.2-0.7-5.9-1.4-8.1c-0.8-2.8-1.3-5.3-1.7-7.5c-0.8-3.6-1.6-6.9-2.6-10c-0.9-3-1.7-6-2.3-8.9
				c-0.6-2.9-0.6-5.9,0-9.1c0.6-3.2,2.2-6.6,4.8-10.2c3-3.9,6.6-7.2,10.8-10c3.4-2.2,7.8-3.9,13.1-5c5.3-1.1,11.2-0.6,17.6,1.7
				c6.1,2.2,9.8,4.6,11.1,7.1c1.3,2.5,1,4.7-0.9,6.6c-1.9,1.9-3.9,2.8-6,2.7c-2.1-0.1-3.5-0.3-4.3-0.6c-4.2-1.1-6.4-0.4-6.8,2.1
				c-0.4,2.5,0,5.6,1.1,9.3c1.1,3.7,2.6,7.6,4.3,11.6c1.7,4,2.9,7.3,3.7,9.8c3,7.2,5.7,14.7,8,22.4c1.9,6.6,3.4,14.1,4.5,22.4
				c1.1,8.3,1.3,16.6,0.6,24.9c7.6-1.9,14.1-3.9,19.6-6c5.5-2.1,10.1-4.1,13.9-6c4.2-2.2,7.6-4.3,10.2-6.2c3-2.5,6-5.1,8.8-7.9
				c2.8-2.8,5.6-5.8,8.2-9.1c1.9-2.8,4.9-3.5,9.1-2.1c3.8,1.9,4.7,4.3,2.8,7.1c-4.2,5.5-8.9,10.5-14.2,14.9
				c-5.3,4.4-10.8,8.2-16.5,11.2c-3.8,1.9-8,3.7-12.5,5.4c-4.2,1.4-8.8,3-13.9,4.8c-5.1,1.8-10.9,3.3-17.3,4.4
				c-1.9,8.6-4.9,16.5-9.1,23.7c-3.8,6.4-9.1,12.6-15.9,18.7c-6.8,6.1-15.9,10.6-27.3,13.7c-12.9,3-24,3.9-33.2,2.5
				c-9.3-1.4-17.1-3.6-23.6-6.6c-7.2-3.3-13.4-7.9-18.8-13.7c-4.9-5.3-7.9-10.5-8.8-15.8c-0.9-5.3-1-9.8-0.3-13.7
				c0.8-4.7,2.3-9.1,4.5-13.3c1.9-2.8,4.5-5.1,8-7.1c3-1.7,6.6-3,10.8-4.2c4.2-1.1,9.3-1,15.3,0.4c4.9,0.8,10,1.8,15.3,2.9
				c4.5,0.8,9.7,1.6,15.3,2.3C668.5,254.2,674.4,254.5,680.4,254.5z M619.6,301.4c0.8,0.6,1.9,1.2,3.4,2.1c1.1,0.6,2.4,1.2,3.7,1.9
				c1.3,0.7,2.9,1.3,4.8,1.9c6.4,1.7,12.2,1.5,17.3-0.4c5.1-1.9,9.4-4.4,12.8-7.5c4.2-3.3,7.4-7.5,9.7-12.5
				c1.9-4.7,3.4-9.1,4.5-13.3c1.1-4.2,1.9-7.2,2.3-9.1c-1.5,0-2.9-0.1-4.3-0.2c-1.3-0.1-2.8-0.2-4.3-0.2c-4.2-0.6-9.8-1.2-16.8-1.9
				c-7-0.7-12.2-1.6-15.6-2.7c-1.9-0.6-3.5-0.8-4.8-0.8c-1.3,0-2.6-0.1-3.7-0.4c-1.5,0-2.6-0.1-3.4-0.4c-3,0-5.7,0.4-8,1.2
				c-1.9,0.8-3.9,2.1-6,3.7c-2.1,1.7-3.5,4-4.3,7.1c-0.8,3.6-0.8,7.2,0,10.8c0.8,3,2,6.4,3.7,10.2
				C612.5,294.6,615.5,298.1,619.6,301.4z"/>
			<path class="st1" d="M796.4,254.5c0.8-6.1,1.1-11.7,1.1-16.8c0-5.1-0.2-9.6-0.6-13.5c-0.4-4.4-0.8-8.3-1.1-11.6
				c-0.8-3.9-1.2-7.4-1.4-10.6c-0.2-3.2-0.7-5.9-1.4-8.1c-0.8-2.8-1.3-5.3-1.7-7.5c-0.8-3.6-1.6-6.9-2.6-10c-0.9-3-1.7-6-2.3-8.9
				c-0.6-2.9-0.6-5.9,0-9.1c0.6-3.2,2.2-6.6,4.8-10.2c3-3.9,6.6-7.2,10.8-10c3.4-2.2,7.8-3.9,13.1-5c5.3-1.1,11.2-0.6,17.6,1.7
				c6.1,2.2,9.8,4.6,11.1,7.1c1.3,2.5,1,4.7-0.9,6.6c-1.9,1.9-3.9,2.8-6,2.7c-2.1-0.1-3.5-0.3-4.3-0.6c-4.2-1.1-6.4-0.4-6.8,2.1
				c-0.4,2.5,0,5.6,1.1,9.3c1.1,3.7,2.6,7.6,4.3,11.6c1.7,4,2.9,7.3,3.7,9.8c3,7.2,5.7,14.7,8,22.4c1.9,6.6,3.4,14.1,4.5,22.4
				c1.1,8.3,1.3,16.6,0.6,24.9c7.6-1.9,14.1-3.9,19.6-6c5.5-2.1,10.1-4.1,13.9-6c4.2-2.2,7.6-4.3,10.2-6.2c3-2.5,6-5.1,8.8-7.9
				c2.8-2.8,5.6-5.8,8.2-9.1c1.9-2.8,4.9-3.5,9.1-2.1c3.8,1.9,4.7,4.3,2.8,7.1c-4.2,5.5-8.9,10.5-14.2,14.9
				c-5.3,4.4-10.8,8.2-16.5,11.2c-3.8,1.9-8,3.7-12.5,5.4c-4.2,1.4-8.8,3-13.9,4.8c-5.1,1.8-10.9,3.3-17.3,4.4
				c-1.9,8.6-4.9,16.5-9.1,23.7c-3.8,6.4-9.1,12.6-15.9,18.7c-6.8,6.1-15.9,10.6-27.3,13.7c-12.9,3-24,3.9-33.2,2.5
				c-9.3-1.4-17.1-3.6-23.6-6.6c-7.2-3.3-13.4-7.9-18.8-13.7c-4.9-5.3-7.9-10.5-8.8-15.8c-0.9-5.3-1-9.8-0.3-13.7
				c0.8-4.7,2.3-9.1,4.5-13.3c1.9-2.8,4.5-5.1,8-7.1c3-1.7,6.6-3,10.8-4.2c4.2-1.1,9.3-1,15.3,0.4c4.9,0.8,10,1.8,15.3,2.9
				c4.5,0.8,9.7,1.6,15.3,2.3C784.4,254.2,790.3,254.5,796.4,254.5z M735.6,301.4c0.8,0.6,1.9,1.2,3.4,2.1c1.1,0.6,2.4,1.2,3.7,1.9
				c1.3,0.7,2.9,1.3,4.8,1.9c6.4,1.7,12.2,1.5,17.3-0.4c5.1-1.9,9.4-4.4,12.8-7.5c4.2-3.3,7.4-7.5,9.7-12.5
				c1.9-4.7,3.4-9.1,4.5-13.3c1.1-4.2,1.9-7.2,2.3-9.1c-1.5,0-2.9-0.1-4.3-0.2c-1.3-0.1-2.8-0.2-4.3-0.2c-4.2-0.6-9.8-1.2-16.8-1.9
				c-7-0.7-12.2-1.6-15.6-2.7c-1.9-0.6-3.5-0.8-4.8-0.8c-1.3,0-2.6-0.1-3.7-0.4c-1.5,0-2.6-0.1-3.4-0.4c-3,0-5.7,0.4-8,1.2
				c-1.9,0.8-3.9,2.1-6,3.7c-2.1,1.7-3.5,4-4.3,7.1c-0.8,3.6-0.8,7.2,0,10.8c0.8,3,2,6.4,3.7,10.2
				C728.5,294.6,731.4,298.1,735.6,301.4z"/>
		</g>
	</g>
</g>
</svg>
